HIERARCHY
ROOT Hips
{
	OFFSET 0.00000 0.00000 0.00000
	CHANNELS 6 Xposition Yposition Zposition Zrotation Yrotation Xrotation 
	JOINT LHipJoint
	{
		OFFSET 0 0 0
		CHANNELS 3 Zrotation Yrotation Xrotation
		JOINT LeftHip
		{
			OFFSET 1.62329 -1.80800 0.67318
			CHANNELS 3 Zrotation Yrotation Xrotation
			JOINT LeftKnee
			{
				OFFSET 2.57139 -7.06484 0.00000
				CHANNELS 3 Zrotation Yrotation Xrotation
				JOINT LeftAnkle
				{
					OFFSET 2.52017 -6.92413 0.00000
					CHANNELS 3 Zrotation Yrotation Xrotation
					JOINT LeftToe
					{
						OFFSET 0.23295 -0.64001 2.10214
						CHANNELS 3 Zrotation Yrotation Xrotation
						End Site
						{
							OFFSET 0.00000 -0.00000 1.10139
						}
					}
				}
			}
		}
	}
	JOINT RHipJoint
	{
		OFFSET 0 0 0
		CHANNELS 3 Zrotation Yrotation Xrotation
		JOINT RightHip
		{
			OFFSET -1.48061 -1.80800 0.67318
			CHANNELS 3 Zrotation Yrotation Xrotation
			JOINT RightKnee
			{
				OFFSET -2.63258 -7.23296 0.00000
				CHANNELS 3 Zrotation Yrotation Xrotation
				JOINT RightAnkle
				{
					OFFSET -2.54779 -7.00000 0.00000
					CHANNELS 3 Zrotation Yrotation Xrotation
					JOINT RightToe
					{
						OFFSET -0.23067 -0.63376 2.12161
						CHANNELS 3 Zrotation Yrotation Xrotation
						End Site
						{
							OFFSET -0.00000 -0.00000 1.11000
						}
					}
				}
			}
		}
	}
	JOINT lowerback
	{
		OFFSET 0 0 0
		CHANNELS 3 Zrotation Yrotation Xrotation
		JOINT Chest
		{
			OFFSET -0.02108 2.07573 -0.16981
			CHANNELS 3 Zrotation Yrotation Xrotation
			JOINT Chest2
			{
				OFFSET 0.05070 2.08439 -0.03141
				CHANNELS 3 Zrotation Yrotation Xrotation
				JOINT lowerneck
				{
					OFFSET 0 0 0
					CHANNELS 3 Zrotation Yrotation Xrotation
					JOINT Neck
					{
						OFFSET -0.10731 1.60408 0.31370
						CHANNELS 3 Zrotation Yrotation Xrotation
						JOINT Head
						{
							OFFSET 0.08411 1.65679 -0.30822
							CHANNELS 3 Zrotation Yrotation Xrotation
							End Site
							{
								OFFSET 0.03911 1.69149 -0.14146
							}
						}
					}
				}
				JOINT LeftCollar
				{
					OFFSET 0 0 0
					CHANNELS 3 Zrotation Yrotation Xrotation
					JOINT LeftShoulder
					{
						OFFSET 3.52315 0.73219 -0.54694
CHANNELS 3 Zrotation Xrotation Yrotation
						JOINT LeftElbow
						{
OFFSET 0 -5.324620 -0.000000
CHANNELS 3 Zrotation Xrotation Yrotation
							JOINT LeftWrist
							{
OFFSET 0 -3.484020 -0.000000
CHANNELS 3 Zrotation Xrotation Yrotation
								JOINT lhand
								{
									OFFSET 0 0 0
CHANNELS 3 Zrotation Xrotation Yrotation
									JOINT LFingers
									{
OFFSET 0 -0.572480 -0.000000
CHANNELS 3 Zrotation Xrotation Yrotation
										End Site
										{
OFFSET 0 -0.461540 -0.000000
										}
									}
								}
								JOINT LThumb
								{
OFFSET 0 0.000000 0.000000
CHANNELS 3 Zrotation Xrotation Yrotation
									End Site
									{
OFFSET 0 -0.468590 0.468590
									}
								}
							}
						}
					}
				}
				JOINT RightCollar
				{
					OFFSET 0 0 0
					CHANNELS 3 Zrotation Yrotation Xrotation
					JOINT RightShoulder
					{
						OFFSET -3.41766 0.93592 -0.10019
CHANNELS 3 Zrotation Xrotation Yrotation
						JOINT RightElbow
						{
OFFSET 0 -5.335890 -0.000000
CHANNELS 3 Zrotation Xrotation Yrotation
							JOINT RightWrist
							{
OFFSET 0 -3.641340 -0.000000
CHANNELS 3 Zrotation Xrotation Yrotation
								JOINT rhand
								{
									OFFSET 0 0 0
CHANNELS 3 Zrotation Xrotation Yrotation
									JOINT RFingers
									{
OFFSET 0 -0.734810 -0.000000
CHANNELS 3 Zrotation Xrotation Yrotation
										End Site
										{
OFFSET 0 -0.592420 -0.000000
										}
									}
								}
								JOINT RThumb
								{
OFFSET 0 0.000000 0.000000
CHANNELS 3 Zrotation Xrotation Yrotation
									End Site
									{
OFFSET 0 -0.601470 0.601470
									}
								}
							}
						}
					}
				}
			}
		}
	}
}
MOTION
Frames: 9
Frame Time: .0083333
-0.9120 17.1270 -2.0704 0.7611 -1.5524 6.5624 0.0000 0.0000 0.0000 -19.1029 -2.6507 -19.9864 5.5142 13.9404 42.9994 1.8803 -4.3284 -24.9191 1.1272 -6.7435 -18.9578 0.0000 0.0000 0.0000 15.4401 8.3692 -19.7029 -6.3912 -14.7970 46.5322 -2.3257 6.3975 -27.5689 -0.0405 1.2986 -3.5708 -2.9888 -0.7029 5.5546 1.6960 -1.0778 -0.3854 3.5253 -0.4665 -3.4274 -11.1022 -3.5863 -22.7106 6.7152 -2.9101 22.1240 3.8458 -1.4201 11.2107 0.0000 -0.0000 0.0000 0.3553 0.3399 -21.5554 16.5751 -26.2942 3.8972 14.0194 8.902 -20.4908 0.0 0.0 0.0 -7.1250 0.0 0.0 -14.4550 50.4813 1.9887 0.0000 -0.0000 0.0000 -2.7152 0.4921 23.6339 -18.2727 -28.505 -4.6787 -20.1344 19.7411 0.3892 0.0 0.0 0.0 7.1250 0.0 -0.0 5.0869 30.3734 1.823
-0.9178 17.0648 -2.0953 0.6552 -1.3969 6.5376 0.0000 0.0000 0.0000 -18.7858 -2.5247 -21.1235 5.9454 14.3753 44.7624 1.9146 -4.9250 -25.0681 1.1624 -6.8443 -19.2550 0.0000 0.0000 0.0000 15.5076 8.4911 -20.3978 -6.7318 -15.1018 47.8526 -2.3732 6.4345 -27.8584 -0.0535 1.4926 -4.1054 -2.8779 -0.7069 5.9245 1.6873 -1.0842 -0.2101 3.4593 -0.4737 -3.4554 -11.0832 -3.6153 -22.9466 6.8139 -2.9406 21.6901 3.8642 -1.4080 11.0965 -0.0000 -0.0000 0.0000 0.5581 0.0213 -21.4604 16.8826 -26.7028 4.0345 9.7309 6.9651 -26.6876 0.0 0.0 0.0 -7.1250 0.0 0.0 -21.8085 55.6401 5.8968 -0.0000 -0.0000 0.0000 -2.6353 0.1242 23.2671 -18.4078 -28.6762 -4.7433 -20.7115 19.0672 -0.3518 0.0 0.0 0.0 7.1250 0.0 -0.0 4.5944 29.5889 1.7317
-0.9217 17.0001 -2.1133 0.5207 -1.3774 6.4943 0.0000 0.0000 0.0000 -18.4648 -2.2511 -22.1900 6.3724 14.7798 46.4587 1.9521 -5.4648 -25.2548 1.2554 -7.1030 -20.0210 0.0000 0.0000 0.0000 15.5878 8.7478 -20.9811 -7.0667 -15.3878 49.1262 -2.4265 6.6097 -28.1670 -0.0644 1.6376 -4.5052 -2.6913 -0.6758 6.2134 1.6628 -1.0362 -0.0366 3.3278 -0.4558 -3.4452 -10.9697 -3.6345 -23.1174 6.7374 -2.9536 21.3046 3.8052 -1.4044 10.9827 0.0000 0.0000 0.0000 0.8142 -0.3331 -21.2935 17.0294 -26.8965 4.1006 8.6045 5.6945 -28.8523 0.0 0.0 0.0 -7.1250 0.0 0.0 -24.4137 57.3905 7.7168 0.0000 0.0000 0.0000 -2.5087 -0.2526 22.6876 -18.3888 -28.6521 -4.7342 -21.4961 18.108 -1.189 0.0 0.0 0.0 7.1250 0.0 -0.0 3.9482 28.693 1.5712
-0.9242 16.9350 -2.1303 0.3941 -1.4071 6.2613 0.0000 0.0000 0.0000 -18.1501 -1.9675 -22.9875 6.7933 15.1553 48.0881 1.9774 -5.9276 -25.3741 1.3009 -7.2260 -20.3866 0.0000 0.0000 0.0000 15.6908 9.0068 -21.3702 -7.4146 -15.6713 50.4254 -2.4876 6.7096 -28.5261 -0.0829 1.8567 -5.1098 -2.5221 -0.6665 6.7253 1.6482 -1.0219 0.1369 3.2238 -0.4519 -3.5571 -10.8213 -3.6123 -23.2591 6.5701 -2.9037 20.9977 3.7190 -1.3828 10.8847 -0.0000 -0.0000 0.0000 1.07 -0.6228 -20.728 17.1613 -27.07 4.1605 8.4908 5.2144 -29.2751 0.0 0.0 0.0 -7.1250 0.0 0.0 -24.8433 57.7476 8.0819 -0.0000 -0.0000 0.0000 -2.3982 -0.6016 21.955 -18.3439 -28.5953 -4.7127 -21.8327 17.234 -1.8053 0.0 0.0 0.0 7.1250 0.0 -0.0 3.6685 28.0286 1.5172
-0.9258 16.8709 -2.1454 0.3216 -1.3122 5.9959 0.0000 0.0000 0.0000 -17.8660 -1.8886 -23.6076 7.2079 15.5045 49.6562 1.9908 -6.5244 -25.4096 1.3173 -7.2696 -20.5165 0.0000 0.0000 0.0000 15.7462 9.1255 -21.7341 -7.7763 -15.9522 51.7528 -2.5472 6.6703 -28.8862 -0.1348 2.3663 -6.5192 -2.3829 -0.7247 7.1878 1.6106 -1.0981 0.3735 3.1197 -0.4950 -3.5687 -10.6472 -3.5232 -23.3377 6.4920 -2.7965 20.5334 3.6680 -1.3203 10.7125 0.0000 0.0000 0.0000 1.3817 -1.1015 -19.878 17.2806 -27.2261 4.2149 7.9942 4.8183 -30.3767 0.0 0.0 0.0 -7.1250 0.0 0.0 -26.2074 58.6245 9.1286 0.0000 0.0000 0.0000 -2.2573 -1.0046 21.1055 -18.2717 -28.5037 -4.6782 -22.0055 16.1644 -2.7213 0.0 0.0 0.0 7.1250 0.0 -0.0 3.5146 27.0409 1.5353
-0.9306 16.8009 -2.1637 0.2479 -1.1533 5.8916 0.0000 0.0000 0.0000 -17.5714 -1.9001 -24.3044 7.6103 15.8250 51.1465 1.9938 -6.8734 -25.4036 1.4740 -7.6718 -21.7216 0.0000 0.0000 0.0000 15.7750 9.2413 -22.2783 -8.1467 -16.2261 53.0893 -2.5923 6.4026 -29.1807 -0.2546 3.2468 -8.9665 -2.2601 -0.7794 7.5405 1.5945 -1.1674 0.5423 3.0459 -0.5331 -3.5889 -10.6097 -3.4617 -23.3433 6.5172 -2.7127 20.0055 3.6729 -1.2668 10.5114 -0.0000 -0.0000 0.0000 1.7533 -1.6589 -19.0374 17.2622 -27.2022 4.2065 8.4732 4.7981 -30.5665 0.0 0.0 0.0 -7.1250 0.0 0.0 -25.8792 58.8996 9.1774 -0.0000 -0.0000 0.0000 -2.1607 -1.5064 20.0491 -18.0793 -28.2585 -4.5867 -22.4517 15.0154 -3.7561 0.0 0.0 0.0 7.1250 0.0 -0.0 3.1607 25.915 1.4636
-0.9412 16.7272 -2.1812 0.0829 -1.0838 5.8706 0.0000 0.0000 0.0000 -17.1341 -1.8459 -25.0873 7.9985 16.1182 52.5574 2.0065 -7.3358 -25.4595 1.6034 -7.9859 -22.6714 0.0000 0.0000 0.0000 15.9023 9.5235 -22.8602 -8.5080 -16.4805 54.3725 -2.6419 6.2971 -29.4837 -0.3417 3.7561 -10.3916 -2.1302 -0.7584 7.8538 1.6107 -1.1325 0.6240 2.9916 -0.5170 -3.6841 -10.6383 -3.4475 -23.3188 6.5900 -2.6885 19.5334 3.6978 -1.2414 10.3342 -0.0000 0.0000 0.0000 2.2314 -2.2274 -18.2273 17.0626 -26.9402 4.1156 9.9131 4.8886 -29.1908 0.0 0.0 0.0 -7.1250 0.0 0.0 -23.3476 57.9764 7.6884 -0.0000 0.0000 0.0000 -2.028 -1.9886 18.5244 -17.9156 -28.049 -4.5095 -22.0943 14.6746 -3.7206 0.0 0.0 0.0 7.1250 0.0 -0.0 3.4317 25.9631 1.5857
-0.9547 16.6706 -2.1910 -0.0920 -1.0502 5.7188 0.0000 0.0000 0.0000 -16.6476 -1.7331 -25.7785 8.3634 16.3801 53.8613 2.0195 -8.1727 -25.5128 1.6204 -8.0261 -22.7933 0.0000 0.0000 0.0000 16.0845 9.8268 -23.1993 -8.8416 -16.7047 55.5408 -2.6964 6.4448 -29.7850 -0.3492 3.7968 -10.5057 -2.0620 -0.7256 8.2241 1.6476 -1.0868 0.7235 2.9933 -0.4945 -3.7914 -10.6581 -3.4143 -23.2840 6.6005 -2.6304 19.1771 3.7063 -1.2096 10.1939 -0.0000 0.0000 0.0000 2.725 -2.8363 -16.9805 16.8116 -26.6088 4.0026 10.4815 4.6219 -28.4248 0.0 0.0 0.0 -7.1250 0.0 0.0 -22.2196 57.3962 6.9767 -0.0000 0.0000 0.0000 -1.9678 -2.4638 16.8441 -17.7854 -27.8815 -4.4484 -20.9053 15.1084 -2.4466 0.0 0.0 0.0 7.1250 0.0 -0.0 4.3643 27.3537 1.876
-0.9655 16.6248 -2.1967 -0.2156 -0.9216 5.5752 0.0000 0.0000 0.0000 -16.2247 -1.7655 -26.3905 8.7013 16.6116 55.0514 2.0328 -9.0519 -25.5895 1.5631 -7.8896 -22.3794 0.0000 0.0000 0.0000 16.2041 10.0051 -23.4985 -9.1511 -16.9039 56.6111 -2.7429 6.6867 -30.0275 -0.3443 3.7704 -10.4316 -1.9992 -0.7566 8.5108 1.6638 -1.1255 0.8143 2.9841 -0.5145 -3.8557 -10.5841 -3.3478 -23.2141 6.5160 -2.5419 18.8841 3.6707 -1.1696 10.0650 0.0000 -0.0000 0.0000 3.24 -3.3909 -15.0832 16.5862 -26.309 3.9022 10.0896 4.2068 -28.4651 0.0 0.0 0.0 -7.1250 0.0 0.0 -22.6435 57.3507 7.0939 0.0000 -0.0000 0.0000 -1.9591 -2.862 15.2052 -17.6760 -27.7404 -4.3974 -19.6846 15.7146 -0.7109 0.0 0.0 0.0 7.1250 0.0 -0.0 5.3796 29.206 2.079
